<?xml version="1.0" standalone="no"?>
<!DOCTYPE svg PUBLIC "-//W3C//DTD SVG 20010904//EN"
 "http://www.w3.org/TR/2001/REC-SVG-20010904/DTD/svg10.dtd">
<svg version="1.0" xmlns="http://www.w3.org/2000/svg"
 width="2000.000000pt" height="2000.000000pt" viewBox="0 0 2000.000000 2000.000000"
 preserveAspectRatio="xMidYMid meet">

<g transform="translate(0.000000,2000.000000) scale(0.100000,-0.100000)"
fill="#000000" stroke="none">
<path d="M7425 11187 c11 -8 79 -47 150 -87 72 -40 132 -75 135 -77 2 -2 -11
-16 -30 -31 -19 -14 -60 -50 -90 -78 l-55 -51 -159 74 c-87 40 -160 72 -162
70 -2 -1 44 -62 102 -134 57 -73 104 -136 104 -140 0 -5 -11 -25 -25 -45 -14
-20 -25 -39 -25 -41 0 -2 26 5 57 15 182 62 377 16 514 -121 272 -272 153
-724 -220 -835 -96 -28 -226 -20 -326 21 -101 42 -224 159 -260 248 -15 36
-25 -49 -31 -255 -7 -225 7 -366 56 -554 75 -293 205 -530 395 -722 150 -153
312 -249 500 -300 99 -27 351 -27 450 0 189 51 350 147 501 300 294 298 454
728 454 1218 0 487 -161 917 -455 1214 -150 153 -312 249 -500 300 -108 29
-351 27 -463 -4 l-83 -22 -247 25 c-136 14 -260 25 -277 25 -28 0 -28 -1 -10
-13z"/>
<path d="M11955 11194 c-11 -2 -51 -12 -89 -20 -213 -49 -432 -196 -598 -403
l-61 -76 84 -7 c146 -11 256 -63 349 -164 181 -199 171 -505 -24 -692 -99 -96
-212 -142 -345 -142 -119 0 -195 25 -300 98 l-64 45 6 -209 c7 -284 39 -454
128 -679 138 -347 393 -630 678 -750 138 -58 200 -70 371 -70 120 0 171 4 225
19 359 96 661 391 825 804 172 436 174 981 4 1413 -46 118 -73 171 -140 280
-30 48 -54 90 -54 93 0 4 47 66 104 139 58 72 104 133 102 134 -2 2 -75 -30
-162 -70 l-159 -74 -55 51 c-30 28 -71 64 -90 78 -19 15 -32 29 -30 31 3 2 72
42 153 88 103 58 143 85 128 87 -11 2 -136 -8 -276 -22 l-255 -26 -77 21 c-58
16 -115 22 -218 25 -77 1 -149 1 -160 -2z"/>
<path d="M16883 8593 c-3 -7 -22 -13 -43 -13 -22 0 -42 -4 -45 -10 -3 -5 -15
-10 -26 -10 -10 0 -19 -4 -19 -10 0 -5 -9 -10 -20 -10 -11 0 -23 -7 -26 -15
-4 -8 -15 -15 -25 -15 -10 0 -19 -4 -19 -10 0 -5 -11 -10 -25 -10 -14 0 -25
-4 -25 -10 0 -5 -9 -10 -20 -10 -11 0 -20 -4 -20 -10 0 -5 -9 -10 -20 -10 -11
0 -23 -7 -26 -15 -4 -8 -19 -15 -34 -15 -16 0 -32 -4 -35 -10 -3 -5 -15 -10
-26 -10 -10 0 -19 -4 -19 -10 0 -5 -8 -10 -19 -10 -10 0 -24 -6 -31 -14 -6 -8
-18 -12 -26 -9 -8 3 -14 -1 -14 -11 0 -12 -10 -16 -35 -16 -19 0 -35 -4 -35
-10 0 -5 -9 -10 -19 -10 -11 0 -23 -4 -26 -10 -3 -5 -14 -10 -25 -10 -10 0
-21 -7 -24 -16 -4 -11 -14 -15 -32 -11 -16 3 -28 -1 -31 -9 -3 -8 -14 -14 -24
-14 -10 0 -19 -4 -19 -10 0 -5 -11 -10 -25 -10 -14 0 -25 -4 -25 -10 0 -5 -14
-10 -30 -10 -19 0 -33 -6 -37 -16 -3 -8 -12 -13 -20 -10 -7 3 -16 -1 -19 -9
-4 -9 -19 -15 -40 -15 -19 0 -34 -4 -34 -10 0 -5 -8 -10 -19 -10 -28 0 -45
-28 -42 -70 2 -26 -2 -39 -13 -43 -12 -5 -16 -20 -16 -56 0 -27 -4 -53 -10
-56 -5 -3 -10 -31 -10 -61 0 -30 -4 -54 -10 -54 -5 0 -10 -14 -10 -30 0 -17
-6 -33 -13 -36 -8 -3 -11 -18 -9 -44 3 -30 0 -41 -12 -46 -9 -4 -16 -18 -16
-34 0 -16 -4 -32 -10 -35 -20 -12 -9 -25 20 -25 17 0 30 5 30 10 0 6 18 10 39
10 22 0 43 5 46 10 3 6 19 10 36 10 20 0 29 5 29 16 0 12 9 14 43 12 36 -3 43
-7 45 -27 2 -15 -3 -28 -12 -33 -9 -5 -16 -22 -16 -38 0 -17 -4 -30 -10 -30
-5 0 -10 -16 -10 -35 0 -19 -4 -35 -10 -35 -5 0 -10 -15 -10 -34 0 -20 -6 -36
-14 -39 -9 -4 -12 -14 -9 -28 4 -14 0 -25 -11 -31 -9 -5 -16 -21 -16 -38 0
-17 -4 -30 -10 -30 -5 0 -10 -16 -10 -35 0 -19 -4 -35 -10 -35 -5 0 -10 -15
-10 -34 0 -20 -6 -36 -14 -39 -8 -3 -12 -15 -9 -31 4 -18 0 -28 -11 -32 -10
-4 -16 -18 -16 -40 0 -19 -4 -34 -10 -34 -5 0 -10 -18 -10 -40 0 -22 -4 -40
-10 -40 -5 0 -10 -15 -10 -34 0 -21 -6 -36 -15 -40 -10 -3 -15 -19 -15 -45 0
-22 -4 -43 -10 -46 -5 -3 -10 -24 -10 -46 0 -21 -4 -39 -10 -39 -5 0 -10 -20
-10 -45 0 -25 -4 -45 -10 -45 -5 0 -10 -20 -10 -44 0 -30 -5 -46 -15 -50 -11
-4 -15 -22 -15 -71 0 -37 -4 -65 -10 -65 -6 0 -10 -33 -10 -80 0 -47 -4 -80
-10 -80 -5 0 -10 -13 -10 -30 0 -16 5 -30 10 -30 6 0 10 -12 10 -27 0 -33 19
-65 27 -45 2 6 16 12 29 12 13 0 24 5 24 10 0 6 7 10 16 10 9 0 27 11 40 25
13 14 28 25 34 25 6 0 25 13 43 30 18 16 37 30 42 30 6 0 46 36 90 80 44 44
88 80 97 80 13 0 18 8 18 25 0 17 5 25 18 25 24 0 252 226 252 251 0 11 7 19
18 19 22 1 56 26 49 38 -3 4 57 71 134 148 76 76 139 143 139 149 0 6 36 46
80 90 44 44 78 86 77 94 -1 8 9 17 23 21 22 5 24 10 22 44 -2 24 1 42 9 47 8
5 12 25 10 57 -2 37 1 51 13 55 12 5 16 20 16 56 0 27 5 53 10 56 6 3 10 31
10 61 0 30 5 54 10 54 6 0 10 24 10 54 0 33 5 56 12 58 8 3 11 22 9 55 -2 38
1 52 13 56 10 4 16 18 16 37 0 16 5 30 10 30 6 0 5 9 -2 21 -10 17 -10 23 0
26 7 3 12 23 12 49 0 24 5 44 10 44 6 0 10 24 10 54 0 36 4 56 14 59 8 3 12
15 9 31 -4 18 0 28 11 32 15 6 15 8 -1 20 -17 13 -17 15 0 28 10 8 17 27 17
49 0 20 5 39 10 42 6 3 10 24 10 45 0 21 5 42 10 45 6 3 10 24 10 45 0 21 6
40 13 43 15 6 -55 77 -77 77 -8 0 -19 6 -23 13 -4 6 -28 12 -52 12 -26 0 -46
-5 -48 -12z"/>
<path d="M2851 8477 c-20 -22 -29 -37 -22 -41 6 -4 11 -16 11 -27 0 -10 5 -19
10 -19 6 0 10 -9 10 -20 0 -11 5 -20 10 -20 6 0 10 -15 10 -34 0 -22 6 -36 16
-40 12 -4 14 -13 10 -31 -5 -18 -2 -27 9 -31 8 -4 15 -15 15 -25 0 -10 5 -19
10 -19 6 0 10 -16 10 -35 0 -19 5 -35 10 -35 6 0 10 -13 10 -29 0 -16 6 -34
14 -41 8 -6 13 -17 10 -24 -3 -8 2 -16 10 -19 10 -4 16 -18 16 -37 0 -16 5
-30 10 -30 6 0 10 -16 10 -35 0 -19 5 -35 10 -35 6 0 10 -13 10 -30 0 -16 7
-33 16 -38 12 -7 15 -18 12 -36 -4 -18 -1 -29 8 -33 8 -3 14 -14 14 -24 0 -10
5 -19 10 -19 6 0 10 -15 10 -33 0 -26 8 -40 35 -63 19 -16 35 -36 35 -44 0 -8
21 -34 45 -58 25 -24 45 -48 45 -54 0 -5 24 -34 53 -65 28 -30 54 -61 57 -68
3 -7 24 -34 48 -59 23 -24 42 -49 42 -54 0 -5 32 -42 70 -82 39 -40 70 -77 70
-82 0 -5 25 -35 55 -65 30 -31 55 -61 55 -67 0 -6 36 -47 80 -90 44 -43 80
-83 80 -90 0 -6 56 -67 125 -136 68 -69 125 -133 125 -143 0 -14 5 -17 20 -12
19 6 25 -2 21 -32 -1 -7 6 -13 16 -13 10 0 79 -61 153 -135 74 -74 141 -135
150 -135 8 0 21 -9 27 -19 13 -20 67 -51 90 -51 7 0 13 -5 13 -11 0 -8 5 -8
15 1 12 10 15 43 15 176 0 103 -4 164 -10 164 -6 0 -10 28 -10 64 0 36 -4 68
-10 71 -5 3 -10 28 -10 55 0 35 -5 52 -17 58 -12 7 -15 18 -10 46 4 27 2 39
-9 43 -10 3 -14 21 -14 59 0 30 -4 54 -10 54 -5 0 -10 16 -10 35 0 19 -4 35
-10 35 -5 0 -10 18 -10 40 0 28 -5 43 -16 47 -11 4 -15 17 -12 46 1 25 -2 42
-10 45 -6 2 -12 17 -12 33 0 16 -4 29 -10 29 -5 0 -10 20 -10 44 0 25 -4 48
-10 51 -5 3 -10 14 -10 25 0 10 -7 20 -15 24 -8 3 -12 12 -9 19 3 8 -2 17 -10
20 -10 4 -16 18 -16 37 0 16 -4 30 -10 30 -5 0 -10 11 -10 25 0 14 -4 25 -10
25 -5 0 -10 14 -10 30 0 19 -6 33 -16 37 -11 4 -14 14 -10 34 3 18 1 29 -9 33
-9 3 -15 18 -15 36 0 16 -4 30 -10 30 -5 0 -10 20 -10 45 0 25 -4 45 -10 45
-5 0 -10 16 -10 35 0 24 -5 35 -15 35 -12 0 -15 13 -15 55 0 30 -4 55 -10 55
-5 0 -10 20 -10 45 0 25 -4 45 -10 45 -5 0 -10 16 -10 35 0 33 -2 35 -35 35
-19 0 -35 5 -35 10 0 6 -13 10 -29 10 -16 0 -31 6 -34 14 -4 9 -15 12 -33 8
-18 -3 -29 0 -36 12 -5 9 -22 16 -38 16 -17 0 -30 5 -30 10 0 6 -16 10 -35 10
-19 0 -35 5 -35 10 0 6 -14 10 -30 10 -18 0 -33 6 -36 15 -4 10 -15 12 -33 9
-20 -4 -30 -1 -34 10 -4 10 -18 16 -37 16 -16 0 -30 5 -30 10 0 6 -16 10 -35
10 -19 0 -35 5 -35 10 0 6 -9 10 -19 10 -10 0 -21 7 -25 15 -4 11 -13 14 -29
10 -15 -4 -28 -1 -36 9 -8 9 -26 16 -42 16 -16 0 -29 5 -29 10 0 6 -16 10 -35
10 -19 0 -35 5 -35 10 0 6 -14 10 -30 10 -19 0 -33 6 -37 16 -3 8 -12 13 -20
10 -7 -3 -16 1 -19 9 -4 9 -19 15 -40 15 -19 0 -34 5 -34 10 0 6 -16 10 -35
10 -19 0 -35 5 -35 10 0 6 -9 10 -19 10 -10 0 -22 7 -25 16 -4 10 -13 13 -25
9 -11 -3 -25 1 -34 10 -9 8 -22 15 -31 15 -8 0 -18 5 -21 10 -3 6 -15 10 -25
10 -10 0 -20 5 -22 10 -2 6 -18 -5 -37 -23z"/>
<path d="M14644 7735 c-4 -9 -19 -15 -35 -15 -16 0 -29 -4 -29 -10 0 -5 -20
-10 -45 -10 -25 0 -45 -4 -45 -10 0 -5 -15 -10 -34 -10 -22 0 -36 -6 -40 -16
-4 -11 -16 -15 -43 -12 -22 2 -38 -2 -41 -10 -2 -7 -22 -12 -48 -12 -24 0 -44
-4 -44 -10 0 -5 -20 -10 -45 -10 -25 0 -45 -4 -45 -10 0 -5 -16 -10 -35 -10
-24 0 -35 -5 -35 -15 0 -11 -12 -15 -45 -15 -25 0 -45 -4 -45 -10 0 -5 -20
-10 -45 -10 -25 0 -45 -4 -45 -10 0 -5 -24 -10 -54 -10 -37 0 -58 -5 -67 -16
-9 -11 -23 -14 -47 -11 -23 4 -35 2 -39 -9 -3 -10 -21 -14 -59 -14 -30 0 -54
-4 -54 -10 0 -5 -20 -10 -45 -10 -25 0 -45 -4 -45 -10 0 -5 -24 -10 -54 -10
-40 0 -55 -4 -60 -16 -5 -13 -16 -16 -57 -12 -37 4 -52 2 -56 -8 -4 -10 -24
-14 -69 -14 -36 0 -64 -4 -64 -10 0 -5 -24 -10 -54 -10 -30 0 -58 -4 -61 -10
-3 -5 -35 -10 -70 -10 -49 0 -64 -4 -69 -16 -5 -13 -16 -16 -56 -12 -38 4 -50
2 -50 -8 0 -17 -37 -18 -43 -1 -4 10 -6 10 -6 0 -1 -9 -21 -13 -65 -13 -36 0
-68 -4 -71 -10 -3 -5 -35 -10 -71 -10 -36 0 -64 -4 -64 -10 0 -6 -32 -10 -75
-10 -58 0 -77 -4 -81 -15 -7 -18 -30 -20 -37 -2 -4 9 -8 9 -15 -1 -6 -9 -28
-13 -67 -11 -39 2 -60 -1 -63 -9 -5 -16 -29 -15 -36 1 -5 10 -7 10 -12 0 -4
-9 -30 -13 -80 -13 -43 0 -74 -4 -74 -10 0 -14 -37 -12 -43 3 -4 10 -6 10 -6
0 -1 -10 -26 -13 -91 -13 -56 0 -90 -4 -90 -10 0 -6 -10 -10 -22 -9 -13 1 -74
1 -135 1 -93 -2 -113 -5 -113 -17 0 -18 -26 -20 -34 -2 -5 10 -7 10 -12 0 -7
-16 -34 -17 -34 -1 0 9 -3 9 -12 0 -8 -8 -54 -12 -140 -12 -79 0 -128 -4 -128
-10 0 -14 -37 -12 -43 3 -4 10 -6 10 -6 0 -1 -7 -12 -13 -25 -13 -13 0 -27 6
-30 13 -5 10 -7 10 -12 0 -8 -18 -1594 -19 -1594 -2 0 8 -5 8 -15 -1 -12 -10
-18 -10 -30 0 -10 9 -15 9 -15 1 0 -17 -21 -13 -36 7 -13 16 -15 16 -25 0 -11
-20 -35 -24 -41 -7 -3 8 -42 11 -120 10 -103 -2 -118 0 -127 16 -10 17 -10 17
-11 1 0 -21 -25 -24 -34 -5 -5 10 -7 10 -12 0 -8 -18 -31 -16 -38 2 -4 12 -25
15 -101 15 -57 0 -95 4 -95 10 0 6 -9 5 -21 -2 -17 -10 -23 -10 -26 0 -3 8
-35 12 -113 12 -77 0 -110 4 -114 13 -5 10 -7 10 -12 0 -7 -15 -34 -17 -34 -3
0 6 -36 10 -89 10 -62 0 -91 4 -94 13 -4 10 -6 10 -6 0 -1 -17 -41 -17 -41 0
0 10 -16 12 -65 9 -58 -4 -65 -2 -65 14 0 17 -1 16 -15 -2 -14 -18 -16 -18
-29 -1 -10 13 -29 17 -90 17 -44 0 -76 4 -76 10 0 6 -31 10 -74 10 -50 0 -76
4 -80 13 -5 10 -7 10 -12 0 -7 -15 -34 -17 -34 -3 0 6 -25 10 -55 10 -30 0
-55 5 -55 10 0 6 -8 5 -20 -2 -17 -11 -22 -10 -30 2 -6 10 -23 13 -54 11 -35
-2 -48 1 -52 14 -6 14 -8 14 -20 -2 -13 -17 -15 -17 -28 0 -9 12 -28 17 -65
17 -28 0 -51 5 -51 10 0 6 -25 10 -55 10 -30 0 -55 5 -55 10 0 6 -9 5 -21 -2
-17 -10 -23 -10 -26 0 -3 7 -24 12 -58 12 -32 0 -55 5 -57 12 -3 8 -25 11 -66
9 -49 -2 -63 1 -68 13 -5 12 -20 16 -60 16 -30 0 -54 5 -54 10 0 6 -28 10 -64
10 -36 0 -68 5 -71 10 -3 6 -24 10 -46 10 -23 0 -42 5 -45 13 -3 10 -21 12
-62 9 -45 -3 -61 0 -71 12 -8 10 -29 16 -52 16 -22 0 -39 5 -39 10 0 6 -24 10
-54 10 -30 0 -58 5 -61 10 -3 6 -24 10 -46 10 -26 0 -42 5 -45 15 -5 11 -22
15 -70 15 -36 0 -64 4 -64 10 0 6 -16 10 -35 10 -19 0 -35 5 -35 10 0 6 -24
10 -54 10 -34 0 -56 5 -58 12 -3 8 -20 11 -45 10 -29 -3 -42 1 -46 12 -4 11
-19 16 -46 16 -22 0 -43 5 -46 10 -3 6 -24 10 -45 10 -21 0 -42 5 -45 10 -10
17 -75 12 -75 -5 0 -8 5 -15 10 -15 6 0 10 -9 10 -19 0 -10 7 -22 16 -25 11
-4 15 -14 11 -32 -3 -16 1 -28 9 -31 8 -3 14 -16 14 -29 0 -13 5 -24 10 -24 6
0 10 -8 10 -18 0 -9 11 -26 25 -36 14 -11 23 -26 21 -33 -3 -8 1 -16 9 -19 8
-4 15 -14 15 -24 0 -9 9 -25 20 -35 11 -10 20 -26 20 -35 0 -10 7 -20 15 -24
8 -3 15 -13 15 -22 0 -25 89 -110 111 -106 12 2 19 -3 19 -12 0 -13 12 -16 55
-16 30 0 55 -4 55 -10 0 -6 33 -10 80 -10 47 0 80 -4 80 -10 0 -6 28 -10 64
-10 44 0 65 -4 69 -13 4 -10 21 -12 66 -9 49 4 62 1 67 -12 5 -13 22 -16 95
-16 53 0 89 -4 89 -10 0 -6 28 -10 64 -10 36 0 68 -4 71 -10 3 -5 46 -10 95
-10 58 0 90 -4 92 -12 3 -7 31 -10 86 -9 67 2 83 -1 88 -13 5 -13 23 -16 90
-16 49 0 84 4 84 10 0 6 14 10 30 10 19 0 33 6 37 16 4 11 17 15 46 12 25 -1
42 2 45 10 2 6 15 12 28 12 13 0 33 6 44 13 17 10 22 9 30 -3 6 -10 10 -11 10
-2 0 8 18 12 54 12 37 0 58 5 67 16 10 12 31 15 103 13 63 -2 91 0 94 9 5 17
23 15 38 -5 13 -17 15 -17 28 0 7 9 17 17 21 17 4 0 14 -8 21 -17 13 -17 15
-17 25 0 12 21 39 23 39 2 0 -8 7 -15 15 -15 8 0 15 7 15 15 0 18 29 20 35 3
4 -10 29 -12 93 -10 71 3 92 1 105 -12 11 -12 35 -16 91 -16 44 0 76 -4 76
-10 0 -5 20 -10 44 -10 26 0 46 -5 48 -12 3 -8 20 -11 46 -9 33 2 42 -1 42
-13 0 -12 10 -16 35 -16 19 0 35 -4 35 -10 0 -5 20 -10 45 -10 25 0 45 -4 45
-10 0 -5 9 -10 19 -10 10 0 21 -6 24 -14 4 -9 15 -12 33 -8 18 3 29 0 36 -12
5 -9 18 -16 28 -16 11 0 20 -4 20 -10 0 -5 13 -10 29 -10 17 0 33 -4 36 -10 3
-5 15 -10 25 -10 10 0 20 -5 22 -11 2 -7 53 -11 155 -10 127 2 151 0 156 -14
6 -13 83 -15 687 -15 596 0 681 2 686 15 5 13 48 15 300 15 189 0 294 4 294
10 0 6 73 10 200 10 127 0 200 4 200 10 0 14 27 12 34 -2 5 -10 7 -10 12 0 3
7 26 12 60 12 30 0 54 5 54 10 0 6 9 10 19 10 10 0 22 7 25 16 4 11 14 15 32
11 16 -3 28 1 31 9 3 8 19 14 39 14 19 0 34 5 34 10 0 6 13 10 29 10 17 0 33
5 36 10 3 6 24 10 46 10 27 0 42 5 46 16 4 11 17 15 46 12 25 -1 42 2 45 10 2
7 24 12 57 12 34 0 55 5 58 13 3 9 9 9 26 -1 12 -7 21 -8 21 -2 0 6 34 10 84
10 63 0 87 4 96 15 12 14 15 14 31 -1 18 -16 20 -16 39 1 18 16 20 16 26 2 5
-15 8 -15 21 -2 18 19 29 19 45 1 11 -11 15 -11 25 3 11 15 12 15 18 -1 6 -14
10 -15 27 -5 16 9 22 9 25 0 3 -9 34 -13 104 -13 59 0 99 -4 99 -10 0 -5 25
-10 55 -10 35 0 57 -5 60 -12 6 -15 125 -12 125 3 0 5 41 9 90 9 53 0 90 4 90
10 0 6 33 10 79 10 62 0 80 3 85 16 5 12 20 15 78 13 48 -2 73 2 76 9 2 8 29
12 73 12 39 0 69 4 69 10 0 6 28 10 65 10 37 0 65 4 65 10 0 6 28 10 65 10 49
0 67 4 71 15 5 11 21 15 60 15 30 0 54 5 54 10 0 6 25 10 55 10 30 0 55 5 55
10 0 6 28 10 65 10 53 0 65 3 65 16 0 9 11 25 25 36 14 11 25 26 25 34 0 8 16
28 35 45 19 17 35 40 35 50 0 10 5 19 10 19 6 0 10 9 10 19 0 11 5 23 10 26 6
3 10 14 10 25 0 10 7 20 15 24 8 3 12 12 9 21 -4 8 1 17 10 21 9 3 16 15 16
25 0 10 5 19 10 19 6 0 10 11 10 25 0 14 5 25 10 25 6 0 10 12 10 26 0 15 7
32 17 39 9 7 13 17 9 23 -10 17 -26 15 -32 -3z"/>
</g>
</svg>
